HIERARCHY
ROOT Hips
{
	OFFSET 0.000000 0.000000 0.000000
	CHANNELS 6 Xposition Yposition Zposition Zrotation Yrotation Xrotation 
	JOINT LowerBack
	{
		OFFSET 0.000000 0.000000 0.000000
		CHANNELS 3 Zrotation Yrotation Xrotation
		JOINT Spine
		{
			OFFSET 0.028270 2.035590 -0.193380
			CHANNELS 3 Zrotation Yrotation Xrotation
			JOINT Spine1
			{
				OFFSET 0.056720 2.048850 -0.042750
				CHANNELS 3 Zrotation Yrotation Xrotation
				JOINT Neck
				{
					OFFSET 0.000000 0.000000 0.000000
					CHANNELS 3 Zrotation Yrotation Xrotation
					JOINT Neck1
					{
						OFFSET -0.054170 1.746240 0.172020
						CHANNELS 3 Zrotation Yrotation Xrotation
						JOINT Head
						{
							OFFSET 0.104070 1.761360 -0.123970
							CHANNELS 3 Zrotation Yrotation Xrotation
							End Site
							{
								OFFSET 0.000000 0.000000 0.000000
							}
						}
					}
				}
				JOINT LeftShoulder
				{
					OFFSET 0.000000 0.000000 0.000000
					CHANNELS 3 Zrotation Yrotation Xrotation
					JOINT LeftArm
					{
						OFFSET 3.362410 1.200890 -0.311210
						CHANNELS 3 Zrotation Yrotation Xrotation
						JOINT LeftForeArm
						{
							OFFSET 4.983000 -0.000000 -0.000000
							CHANNELS 3 Zrotation Yrotation Xrotation
							JOINT LeftHand
							{
								OFFSET 3.483560 -0.000000 -0.000000
								CHANNELS 3 Zrotation Yrotation Xrotation
								JOINT LeftFingerBase
								{
									OFFSET 0.000000 0.000000 0.000000
									CHANNELS 3 Zrotation Yrotation Xrotation
									JOINT LeftHandIndex1
									{
										OFFSET 0.715260 -0.000000 -0.000000
										CHANNELS 3 Zrotation Yrotation Xrotation
										End Site
										{
											OFFSET 0.000000 0.000000 0.000000
										}
									}
								}
								JOINT LThumb
								{
									OFFSET 0.000000 0.000000 0.000000
									CHANNELS 3 Zrotation Yrotation Xrotation
									End Site
									{
										OFFSET 0.000000 0.000000 0.000000
									}
								}
							}
						}
					}
				}
				JOINT RightShoulder
				{
					OFFSET 0.000000 0.000000 0.000000
					CHANNELS 3 Zrotation Yrotation Xrotation
					JOINT RightArm
					{
						OFFSET -3.136600 1.374050 -0.404650
						CHANNELS 3 Zrotation Yrotation Xrotation
						JOINT RightForeArm
						{
							OFFSET -5.241900 -0.000000 -0.000000
							CHANNELS 3 Zrotation Yrotation Xrotation
							JOINT RightHand
							{
								OFFSET -3.444170 -0.000000 -0.000000
								CHANNELS 3 Zrotation Yrotation Xrotation
								JOINT RightFingerBase
								{
									OFFSET 0.000000 0.000000 0.000000
									CHANNELS 3 Zrotation Yrotation Xrotation
									JOINT RightHandIndex1
									{
										OFFSET -0.622530 -0.000000 -0.000000
										CHANNELS 3 Zrotation Yrotation Xrotation
										End Site
										{
											OFFSET 0.000000 0.000000 0.000000
										}
									}
								}
								JOINT RThumb
								{
									OFFSET 0.000000 0.000000 0.000000
									CHANNELS 3 Zrotation Yrotation Xrotation
									End Site
									{
										OFFSET 0.000000 0.000000 0.000000
									}
								}
							}
						}
					}
				}
			}
		}
	}
}
}
MOTION
Frames: 9
Frame Time: 0.008333
1.417135 16.696805 -0.513545 8.696624 85.757026 8.754348 -1.564986 -1.322630 -1.477477 -0.885876 -1.282256 -2.823370 -5.623895 -1.321572 1.827542 7.887462 -12.075740 -9.875499 -2.498565 -0.163961 -0.597858 0.000000 0.000000 0.000000 -3.918286 16.780677 1.238278 -64.837242 -4.943369 8.418854 -3.917897 -24.289416 -0.008115 -1.411054 4.725679 -0.052513 -0.118575 0.019691 -0.000000 0.000000 0.000000 0.000000 0.000000 0.000000 0.000000 11.387030 -7.677225 0.369978 62.423470 -2.036533 -4.325284 3.498248 26.496842 0.009930 0.674878 3.960214 0.020408 0.114040 -0.071548 -0.000000 0.000000 0.000000 0.000000 0.000000 0.000000 0.000000 
1.667869 16.702167 -0.490373 7.781551 86.156030 7.962976 -1.147733 -1.525499 -1.617402 -0.810347 -1.518640 -2.831838 -5.715251 -1.548615 1.859860 7.935490 -12.428994 -9.872168 -2.558789 -0.168705 -0.595213 0.000000 0.000000 0.000000 -3.467423 16.191021 1.271690 -63.165549 -6.163912 8.209672 -3.930953 -25.845709 -0.008299 -1.569052 4.729275 -0.058634 -0.125479 0.026306 -0.000000 0.000000 0.000000 0.000000 0.000000 0.000000 0.000000 11.753696 -8.225209 0.320005 63.989814 -2.979919 -5.167279 3.558922 25.561171 0.009711 0.581968 3.937414 0.016988 0.114320 -0.067854 -0.000000 0.000000 0.000000 0.000000 0.000000 0.000000 0.000000 
1.920249 16.706869 -0.465799 6.747780 86.530123 7.057814 -0.738368 -1.728262 -1.768873 -0.734404 -1.754707 -2.840696 -5.800300 -1.774842 1.900715 7.981444 -12.804074 -9.882278 -2.610475 -0.172621 -0.595827 0.000000 0.000000 0.000000 -3.020442 15.622144 1.314199 -61.403458 -7.256299 8.031988 -3.929169 -27.461577 -0.008359 -1.803295 4.732685 -0.067856 -0.131523 0.032245 0.000000 0.000000 0.000000 0.000000 0.000000 0.000000 0.000000 12.098615 -8.795139 0.279733 65.516828 -3.901979 -5.974516 3.618760 24.582646 0.009573 0.503779 3.947591 0.014167 0.114427 -0.064383 -0.000000 0.000000 0.000000 0.000000 0.000000 0.000000 0.000000 
2.174194 16.710655 -0.439372 5.694029 86.882640 6.126821 -0.347630 -1.931513 -1.922700 -0.660480 -1.990074 -2.850515 -5.879072 -2.000167 1.941614 8.023694 -13.164731 -9.896154 -2.655231 -0.175963 -0.597149 0.000000 0.000000 0.000000 -2.564300 15.055250 1.368187 -59.556396 -8.190039 7.877434 -3.910183 -29.128706 -0.008243 -2.107361 4.726525 -0.079883 -0.136481 0.037519 0.000000 0.000000 0.000000 0.000000 0.000000 0.000000 0.000000 12.415457 -9.347145 0.250305 67.022070 -4.858536 -6.805456 3.677242 23.603549 0.009501 0.465320 3.975953 0.012947 0.114167 -0.061123 -0.000000 0.000000 0.000000 0.000000 0.000000 0.000000 0.000000 
2.429663 16.713308 -0.410733 4.729486 87.221520 5.270438 0.014464 -2.137039 -2.069309 -0.590659 -2.225540 -2.859334 -5.951098 -2.225463 1.983159 8.066078 -13.514161 -9.915572 -2.692235 -0.178621 -0.599750 0.000000 0.000000 0.000000 -2.095639 14.497142 1.432500 -57.627503 -8.972866 7.749487 -3.872735 -30.824581 -0.007928 -2.467583 4.705741 -0.093915 -0.140188 0.042175 0.000000 0.000000 0.000000 0.000000 0.000000 0.000000 0.000000 12.707155 -9.885138 0.231247 68.504993 -5.850070 -7.638270 3.733714 22.639667 0.009474 0.466521 4.016584 0.013126 0.113569 -0.057992 -0.000000 0.000000 0.000000 0.000000 0.000000 0.000000 0.000000 
2.686677 16.714738 -0.379599 3.960584 87.558601 4.589677 0.340400 -2.347126 -2.201301 -0.526334 -2.462618 -2.864306 -6.015404 -2.452218 2.030773 8.114012 -13.875264 -9.947826 -2.719323 -0.180293 -0.605677 0.000000 0.000000 0.000000 -1.619304 13.968304 1.504266 -55.619286 -9.637374 7.653659 -3.816799 -32.516816 -0.007412 -2.865849 4.669032 -0.109054 -0.142530 0.046308 0.000000 0.000000 0.000000 0.000000 0.000000 0.000000 0.000000 12.979305 -10.435176 0.220883 69.954973 -6.852586 -8.407631 3.787579 21.691818 0.009481 0.495013 4.068604 0.014305 0.112766 -0.054870 -0.000000 0.000000 0.000000 0.000000 0.000000 0.000000 0.000000 
2.945222 16.714872 -0.345732 3.514573 87.908206 4.207480 0.624163 -2.563327 -2.315390 -0.469174 -2.702364 -2.865153 -6.072528 -2.681637 2.082733 8.170626 -14.242352 -9.990362 -2.737786 -0.181112 -0.614278 0.000000 0.000000 0.000000 -1.131910 13.465529 1.581880 -53.542868 -10.188493 7.571057 -3.742508 -34.180405 -0.006708 -3.283834 4.619539 -0.124304 -0.143383 0.050055 0.000000 0.000000 0.000000 0.000000 0.000000 0.000000 0.000000 13.240005 -10.992413 0.218289 71.370083 -7.884288 -9.110856 3.838671 20.785271 0.009489 0.558164 4.117514 0.016784 0.111720 -0.051654 -0.000000 0.000000 0.000000 0.000000 0.000000 0.000000 0.000000 
3.205376 16.713790 -0.309030 3.551945 88.284935 4.282970 0.862370 -2.787396 -2.410792 -0.420226 -2.946296 -2.861334 -6.122497 -2.915298 2.140144 8.239379 -14.621361 -10.043645 -2.748247 -0.181110 -0.625703 0.000000 0.000000 0.000000 -0.634256 12.992773 1.662543 -51.411570 -10.643434 7.485279 -3.651018 -35.787040 -0.005845 -3.702489 4.563522 -0.139165 -0.142702 0.053574 0.000000 0.000000 0.000000 0.000000 0.000000 0.000000 0.000000 13.498600 -11.564996 0.221818 72.741449 -8.944972 -9.720403 3.887108 19.932789 0.009471 0.656793 4.151834 0.020463 0.110450 -0.048230 -0.000000 0.000000 0.000000 0.000000 0.000000 0.000000 0.000000 
3.467208 16.711700 -0.269436 4.422216 88.702864 5.166211 1.053852 -3.021099 -2.488895 -0.380435 -3.196157 -2.852833 -6.165313 -3.154928 2.203887 8.322771 -15.017404 -10.107414 -2.751711 -0.180369 -0.639891 0.000000 0.000000 0.000000 -0.127919 12.552158 1.743201 -49.242162 -11.017936 7.379084 -3.544108 -37.310818 -0.004867 -4.103836 4.509546 -0.153138 -0.140508 0.057027 0.000000 0.000000 0.000000 0.000000 0.000000 0.000000 0.000000 13.764372 -12.160228 0.229648 74.060331 -10.033471 -10.216488 3.933371 19.144111 0.009399 0.794102 4.159650 0.025640 0.108957 -0.044503 -0.000000 0.000000 0.000000 0.000000 0.000000 0.000000 0.000000 
